<svg width="66" height="66" viewBox="0 0 66 66" fill="none" xmlns="http://www.w3.org/2000/svg">
<path d="M32.9375 0C14.782 0 0 14.7687 0 32.9375C0 51.093 14.782 65.875 32.9375 65.875C51.093 65.875 65.875 51.093 65.875 32.9375C65.875 14.7687 51.093 0 32.9375 0ZM3.32031 32.9375C3.32031 28.6477 4.23672 24.5703 5.88359 20.8914L20.0148 59.593C10.1336 54.7852 3.32031 44.6516 3.32031 32.9375ZM32.9375 62.5547C30.0289 62.5547 27.2266 62.1297 24.5703 61.3461L33.4555 35.5273L42.5531 60.4695C42.6195 60.6156 42.6859 60.7484 42.7656 60.8812C39.6977 61.957 36.3906 62.5547 32.9375 62.5547ZM37.0148 19.0586C38.7945 18.9656 40.4016 18.7797 40.4016 18.7797C41.9953 18.5938 41.8094 16.243 40.2156 16.3359C40.2156 16.3359 35.4211 16.7078 32.3266 16.7078C29.418 16.7078 24.5305 16.3359 24.5305 16.3359C22.9367 16.243 22.7508 18.6867 24.3445 18.7797C24.3445 18.7797 25.8586 18.9656 27.4523 19.0586L32.0609 31.7023L25.5797 51.1328L14.7953 19.0586C16.575 18.9656 18.182 18.7797 18.182 18.7797C19.7758 18.5938 19.5898 16.243 17.9961 16.3359C17.9961 16.3359 13.2016 16.7078 10.107 16.7078C9.54922 16.7078 8.89844 16.6945 8.19453 16.668C13.4937 8.63281 22.5914 3.32031 32.9375 3.32031C40.6406 3.32031 47.6664 6.26875 52.9391 11.0898C52.8063 11.0766 52.6867 11.0633 52.5539 11.0633C49.6453 11.0633 47.5867 13.6 47.5867 16.3227C47.5867 18.7664 48.9945 20.825 50.4953 23.2687C51.6242 25.2344 52.9391 27.7711 52.9391 31.4367C52.9391 33.9734 51.9695 36.9086 50.6813 41.0125L47.7328 50.8805L37.0148 19.0586ZM47.8258 58.5305L56.8703 32.3797C58.557 28.1562 59.1281 24.7828 59.1281 21.768C59.1281 20.6789 59.0617 19.6695 58.9289 18.7266C61.2398 22.95 62.5547 27.7844 62.5547 32.9375C62.5547 43.868 56.6313 53.4039 47.8258 58.5305Z" fill="#2C144B"/>
</svg>
