<svg width="68" height="59" viewBox="0 0 68 59" fill="none" xmlns="http://www.w3.org/2000/svg">
<path d="M55.5422 18.9991C54.825 18.7636 54.1078 18.5411 53.3906 18.3318C53.5102 17.8476 53.6164 17.3634 53.7227 16.8792C55.3563 9.08 54.2805 2.81184 50.6547 0.744262C47.1617 -1.23171 41.4641 0.822778 35.7 5.76926C35.1289 6.25344 34.5711 6.76379 34.0398 7.27414C33.6812 6.93391 33.3094 6.59368 32.9375 6.26653C26.8945 0.979809 20.8383 -1.2448 17.2125 0.835864C13.7328 2.82493 12.6969 8.72668 14.1578 16.1072C14.3039 16.84 14.4633 17.5597 14.6492 18.2925C13.7992 18.5281 12.9625 18.7898 12.1789 19.0646C5.08672 21.4855 0 25.3066 0 29.2585C0 33.3413 5.41875 37.4372 12.7898 39.9236C13.3875 40.1198 13.9852 40.3161 14.5961 40.4863C14.3969 41.2714 14.2242 42.0435 14.0648 42.8417C12.6703 50.1044 13.7594 55.8622 17.2391 57.8382C20.825 59.8796 26.8547 57.7859 32.725 52.7216C33.1898 52.3159 33.6547 51.8972 34.1195 51.4523C34.7039 52.015 35.3148 52.5515 35.9258 53.0749C41.6102 57.8906 47.2281 59.8404 50.6945 57.8644C54.2805 55.823 55.4492 49.6333 53.9352 42.0958C53.8156 41.52 53.6828 40.9312 53.5367 40.3292C53.9617 40.2114 54.3734 40.0806 54.7852 39.9497C62.4484 37.4503 68 33.4068 68 29.2585C68 25.2935 62.7672 21.4462 55.5422 18.9991ZM37.5727 7.88918C42.5133 3.64934 47.1219 1.98743 49.2203 3.17825C51.4648 4.44758 52.3281 9.57727 50.9203 16.3165C50.8273 16.7614 50.7344 17.1933 50.6148 17.6251C47.6664 16.9708 44.6781 16.4997 41.6766 16.238C39.95 13.804 38.0641 11.4747 36.0188 9.28938C36.5367 8.8052 37.0414 8.34719 37.5727 7.88918ZM22.2062 36.0501C22.8836 37.1886 23.5742 38.3271 24.3047 39.4394C22.2328 39.2169 20.1742 38.8898 18.1422 38.4579C18.7266 36.5736 19.457 34.6238 20.307 32.6347C20.918 33.7863 21.5422 34.9247 22.2062 36.0501ZM18.182 20.3077C20.0945 19.889 22.1266 19.5488 24.2383 19.287C23.5344 20.3732 22.8438 21.4855 22.193 22.6109C21.5422 23.7232 20.9047 24.8616 20.307 26.0132C19.4703 24.0634 18.7664 22.1529 18.182 20.3077ZM21.8211 29.3239C22.6977 27.5181 23.6539 25.7515 24.6633 24.0111C25.6727 22.2706 26.7617 20.5825 27.9039 18.9206C29.8961 18.7767 31.9281 18.6982 34 18.6982C36.0719 18.6982 38.1172 18.7767 40.0961 18.9206C41.225 20.5695 42.3008 22.2575 43.3234 23.9849C44.3461 25.7122 45.3023 27.4788 46.2055 29.2716C45.3156 31.0775 44.3594 32.8572 43.3367 34.6107C42.3273 36.3511 41.2516 38.0392 40.1227 39.7142C38.1437 39.8581 36.0852 39.9236 34 39.9236C31.9148 39.9236 29.8961 39.8581 27.9437 39.7404C26.7883 38.0784 25.6992 36.3773 24.6766 34.6368C23.6539 32.8964 22.7109 31.1298 21.8211 29.3239ZM45.807 36.0239C46.4844 34.8724 47.1219 33.7077 47.7461 32.53C48.5961 34.4275 49.3398 36.3511 49.9906 38.3271C47.932 38.7851 45.8469 39.1384 43.7484 39.3739C44.4656 38.2747 45.143 37.1493 45.807 36.0239ZM47.7195 26.0132C47.0953 24.8616 46.4578 23.7101 45.7937 22.5847C45.143 21.4724 44.4656 20.3732 43.7617 19.287C45.9 19.5488 47.9453 19.9021 49.8578 20.3339C49.2469 22.2706 48.5297 24.155 47.7195 26.0132ZM34.0266 11.2915C35.4211 12.7833 36.7359 14.3536 37.9578 15.9763C35.3281 15.8585 32.6852 15.8585 30.0555 15.9763C31.357 14.2882 32.6984 12.7179 34.0266 11.2915ZM18.6203 3.26985C20.8516 1.98743 25.8055 3.81946 31.025 8.37336C31.357 8.66125 31.6891 8.97532 32.0344 9.28938C29.9758 11.4747 28.0766 13.804 26.3367 16.238C23.3352 16.4997 20.3602 16.9577 17.4117 17.5989C17.2391 16.9316 17.093 16.2511 16.9469 15.5706C15.6984 9.23704 16.5219 4.46067 18.6203 3.26985ZM15.3664 37.7644C14.8086 37.6073 14.2641 37.4372 13.7195 37.254C10.8906 36.3773 7.67656 34.9902 5.35234 33.1712C4.01094 32.2552 3.10781 30.8419 2.85547 29.2585C2.85547 26.8638 7.05234 23.8017 13.1086 21.721C13.8656 21.4593 14.6359 21.2238 15.4062 21.0013C16.3094 23.8409 17.3984 26.6282 18.6602 29.3239C17.3852 32.0589 16.2828 34.8855 15.3664 37.7644ZM30.8523 50.5886C28.6609 52.5646 26.1242 54.1349 23.3617 55.2079C21.8875 55.9015 20.1875 55.9669 18.6734 55.3781C16.5617 54.1741 15.6852 49.5548 16.8805 43.339C17.0266 42.6062 17.1859 41.8734 17.3719 41.1536C20.3469 41.7818 23.3484 42.2136 26.3898 42.4361C28.143 44.8831 30.0687 47.2255 32.1273 49.424C31.7023 49.8296 31.2773 50.2222 30.8523 50.5886ZM34.1062 47.4087C32.7516 45.9693 31.3969 44.3728 30.082 42.6585C31.357 42.7109 32.6719 42.737 34 42.737C35.368 42.737 36.7094 42.7109 38.0375 42.6454C36.8156 44.3073 35.5008 45.8907 34.1062 47.4087ZM51.4648 51.3345C51.3453 52.931 50.5484 54.4228 49.2734 55.4304C47.1617 56.6343 42.6594 55.064 37.7984 50.955C37.2406 50.4839 36.6828 49.9736 36.1117 49.4501C38.1437 47.2386 40.0164 44.8962 41.7164 42.4361C44.7578 42.1874 47.7859 41.7294 50.7742 41.062C50.907 41.5986 51.0266 42.1351 51.1328 42.6585C51.7836 45.4851 51.8898 48.4294 51.4648 51.3345ZM53.882 37.2671C53.5102 37.3849 53.1383 37.5027 52.7531 37.6073C51.8234 34.7546 50.6813 31.9673 49.3664 29.2585C50.6414 26.589 51.7172 23.8409 52.6203 21.0275C53.3109 21.2238 53.975 21.4331 54.6125 21.6425C60.8016 23.7363 65.1445 26.8507 65.1445 29.2323C65.1445 31.7972 60.5094 35.1079 53.882 37.2671ZM34 35.3042C37.3602 35.3042 40.0828 32.6216 40.0828 29.3109C40.0828 26.0001 37.3602 23.3175 34 23.3175C30.6398 23.3175 27.9172 26.0001 27.9172 29.3109C27.9172 32.6216 30.6398 35.3042 34 35.3042Z" fill="#A2E3ED"/>
</svg>
